# xmcd
#
# Track frame offsets:
#	150
#	15156
#	29865
#	43869
#	59264
#	73261
#	88811
#	101966
#	115954
#	129166
#	143000
#
# Disc length: 2111 seconds
#
# Revision: 0
# Processed by: cddbd v1.5.2PL0 Copyright (c) Steve Scherf et al.
# Submitted via: EasyCDDAExtractor 9.0.2.1
#
DISCID=9d083d0b
DTITLE=Maate Quente - Isso Só Pode Ser Festa
DYEAR=2007
DGENRE=Gaúcha
TTITLE0=Isso Só Pode Ser Festa
TTITLE1=Emagreça Com Saúde
TTITLE2=Aviãozinho
TTITLE3=Depois Das Seis
TTITLE4=Meu Negócio É Só Ficar
TTITLE5=Teu Sorriso
TTITLE6=Me Chama No Fole
TTITLE7=Programa De Fim De Semana
TTITLE8=O Vanerão
TTITLE9=Uma Vanera Pros Bigode
TTITLE10=A Dança Da Paneleira (Ao Vivo)
EXTD=
EXTT0=
EXTT1=
EXTT2=
EXTT3=
EXTT4=
EXTT5=
EXTT6=
EXTT7=
EXTT8=
EXTT9=
EXTT10=
PLAYORDER=
